<?xml version="1.0" standalone="no"?><!DOCTYPE svg PUBLIC "-//W3C//DTD SVG 1.1//EN" "http://www.w3.org/Graphics/SVG/1.1/DTD/svg11.dtd"><svg class="icon" width="200px" height="200.00px" viewBox="0 0 1024 1024" version="1.1" xmlns="http://www.w3.org/2000/svg"><path fill="#515151" d="M290 294.5q0-20.5-12.5-33t-33-12.5q-21.5 0-38 12.75t-16.5 32.75q0 19.5 16.5 32.25t38 12.75q20.5 0 33-12.25t12.5-32.75zm371.5 253.5q0-14-12.75-25t-32.75-11q-13.5 0-24.75 11.25t-11.25 24.75q0 14 11.25 25.25t24.75 11.25q20 0 32.75-11t12.75-25.5zm-118-253.5q0-20.5-12.25-33t-32.75-12.5q-21.5 0-38 12.75t-16.5 32.75q0 19.5 16.5 32.25t38 12.75q20.5 0 32.75-12.25t12.25-32.75zm317.5 253.5q0-14-13-25t-32.5-11q-13.5 0-24.75 11.25t-11.25 24.75q0 14 11.25 25.25t24.75 11.25q19.5 0 32.5-11t13-25.5zm-133-198.5q-15.5-2-35-2-84.5 0-155.5 38.5t-111.75 104.25-40.75 143.75q0 39 11.5 76-17.5 1.5-34 1.5-13 0-25-0.75t-27.5-3.25-22.25-3.5-27.25-5.25-25-5.25l-126.5 63.5 36-109q-145-101.5-145-245 0-84.5 48.75-155.5t132-111.75 181.75-40.75q88 0 166.25 33t131 91.25 68.25 130.25zm296 280.5q0 58.5-34.25 111.75t-92.75 96.75l27.5 90.5-99.5-54.5q-75 18.5-109 18.5-84.5 0-155.5-35.25t-111.75-95.75-40.75-132 40.75-132 111.75-95.75 155.5-35.25q80.5 0 151.5 35.25t113.75 96 42.75 131.75z" /></svg>