<?xml version="1.0" standalone="no"?><!DOCTYPE svg PUBLIC "-//W3C//DTD SVG 1.1//EN" "http://www.w3.org/Graphics/SVG/1.1/DTD/svg11.dtd"><svg class="icon" width="200px" height="200.00px" viewBox="0 0 1024 1024" version="1.1" xmlns="http://www.w3.org/2000/svg"><path fill="#515151" d="M755.712 487.68h32.554667v-42.666667h-32.853334l0.298667 42.666667zM256 85.333333a170.666667 170.666667 0 0 0-170.666667 170.666667v512a170.666667 170.666667 0 0 0 170.666667 170.666667h512a170.666667 170.666667 0 0 0 170.666667-170.666667V256a170.666667 170.666667 0 0 0-170.666667-170.666667H256z m22.186667 530.602667c0.512 30.378667-20.522667 30.378667-20.522667 30.378667h-29.738667l-31.232-41.216h32.768V377.472h49.237334c0 74.666667-0.213333 163.925333-0.512 238.506667z m-120.746667 6.613333c-7.210667-12.458667-13.909333-24.32-20.48-35.968l-0.042667-0.042666L128 570.837333c0-0.298667 0.341333-1.664 0.981333-3.925333 3.754667-14.165333 17.237333-64.512 13.653334-120.576h51.754666s1.877333 121.770667-36.992 176.213333z m267.946667-218.709333l13.056-26.368h49.237333c-3.157333 6.314667-6.485333 12.672-9.728 18.944-9.088 17.450667-18.005333 34.645333-24.32 51.456l44.458667-2.56 14.976-0.810667-31.573334 63.488-2.005333 4.138667-2.005333 4.096c-10.624 21.162667-10.624 21.376 12.928 21.802667 2.218667 0 4.309333 0.256 7.936 0.725333l1.493333 0.170667c-6.485333 12.885333-12.458667 24.746667-18.645333 36.266666-0.981333 1.792-3.925333 3.968-5.76 3.968l-9.6 0.042667c-14.08 0.085333-28.330667 0.170667-42.496-1.322667-12.458667-1.28-17.237333-10.965333-12.458667-22.698666 4.266667-10.581333 9.088-20.906667 13.952-31.317334 1.877333-3.968 3.754667-7.978667 5.546667-11.946666a427.477333 427.477333 0 0 0 7.68-17.237334h-9.301334c-5.205333 0.085333-9.770667 0.128-14.293333 0-20.394667-1.024-27.264-10.24-18.901333-29.013333 9.429333-20.778667 19.626667-41.344 29.866666-61.866667z m-75.690667 216.021333c-23.552-20.608-36.266667-82.346667-35.925333-173.824H362.24c-3.712 48.170667 11.946667 112.512 11.946667 112.512s-14.250667 31.573333-24.533334 61.312z m97.962667 26.368c-18.218667 0.256-36.522667 0.256-56.405334 0.213334h-15.658666c9.898667-19.84 18.133333-35.925333 25.386666-50.005334h78.506667c-2.858667 5.504-5.546667 10.666667-8.021333 15.658667-5.290667 10.453333-10.112 19.882667-15.232 29.141333-1.28 2.474667-5.546667 4.864-8.576 4.992z m209.194666 0.298667h-176.64l23.893334-47.189333h50.346666v-154.282667h-31.402666V396.757333h113.706666v47.530667h-31.018666v155.178667h51.114666v47.061333z m198.656-0.938667h-45.354666l-18.986667-40.832 49.28 0.256s0.554667-37.034667 0-49.706666c-0.341333-10.752-6.186667-17.706667-17.152-17.792-15.786667-0.426667-31.658667-0.341333-48.298667-0.298667l-19.498666 0.085333v108.501334h-48.725334v-107.861334h-49.365333V487.68h47.829333v-42.496h-31.786666V397.653333h32.213333v-20.181333h49.365333l0.341334 20.181333h39.168s36.138667-0.853333 36.266666 34.261334c0.213333 10.410667 0.298667 44.501333 0.298667 56.021333 41.472-0.213333 59.136 8.234667 59.136 37.12v85.888c0 35.584-34.730667 34.645333-34.730667 34.645333z m13.909334-199.125333h-26.154667v-25.045333c0-9.130667 4.565333-17.493333 12.245333-22.357334 8.704-5.546667 20.864-9.130667 32.256 1.834667 0.426667 0.256 0.725333 0.682667 1.024 1.066667l0.170667 0.256c15.701333 16.810667 3.328 44.245333-19.541333 44.245333z" /></svg>