<svg xmlns="http://www.w3.org/2000/svg" width="256" height="256" viewBox="0 0 100 100"><rect width="100" height="100" rx="20" fill="#3b3755"></rect><path d="M29.08 36.14L29.08 36.14Q33.22 36.14 36.82 37.49Q40.41 38.84 43.07 41.54Q45.73 44.24 47.21 48.38Q48.70 52.52 48.70 58.10L48.70 58.10Q48.70 63.77 47.16 67.91Q45.64 72.05 42.89 74.75Q40.15 77.45 36.28 78.75Q32.41 80.06 27.82 80.06L27.82 80.06Q23.41 80.06 19.85 79.03Q16.30 77.99 14.05 76.64L14.05 76.64Q12.16 75.47 11.44 74.34Q10.72 73.22 10.72 71.33L10.72 71.33L10.72 20.57Q11.17 20.39 12.11 20.17Q13.06 19.94 14.14 19.94L14.14 19.94Q17.92 19.94 17.92 23.18L17.92 23.18L17.92 39.29Q19.90 38.03 22.64 37.09Q25.39 36.14 29.08 36.14ZM28.00 42.08L28.00 42.08Q24.85 42.08 22.28 43.21Q19.72 44.33 17.92 45.86L17.92 45.86L17.92 71.33Q19.27 72.32 21.83 73.22Q24.40 74.12 27.82 74.12L27.82 74.12Q30.88 74.12 33.35 73.17Q35.83 72.23 37.63 70.25Q39.43 68.27 40.41 65.25Q41.41 62.24 41.41 58.10L41.41 58.10Q41.41 53.96 40.41 50.90Q39.43 47.84 37.63 45.91Q35.83 43.97 33.35 43.02Q30.88 42.08 28.00 42.08ZM89.28 67.82L89.28 67.82Q89.28 73.58 85.06 76.82Q80.83 80.06 72.81 80.06L72.81 80.06Q69.39 80.06 66.52 79.47Q63.63 78.89 61.61 77.95Q59.59 77 58.46 75.78Q57.34 74.57 57.34 73.31L57.34 73.31Q57.34 72.23 57.92 71.24Q58.51 70.25 59.67 69.53L59.67 69.53Q62.11 71.33 65.34 72.72Q68.58 74.12 72.72 74.12L72.72 74.12Q82.09 74.12 82.09 67.82L82.09 67.82Q82.09 62.69 75.88 61.16L75.88 61.16L68.41 59.18Q62.91 57.74 60.39 55.00Q57.88 52.25 57.88 47.93L57.88 47.93Q57.88 45.59 58.82 43.43Q59.77 41.27 61.74 39.65Q63.73 38.03 66.65 37.09Q69.58 36.14 73.53 36.14L73.53 36.14Q79.84 36.14 83.70 37.98Q87.57 39.83 87.57 42.26L87.57 42.26Q87.57 43.43 86.99 44.33Q86.41 45.23 85.41 45.68L85.41 45.68Q83.80 44.60 80.83 43.34Q77.86 42.08 73.81 42.08L73.81 42.08Q69.75 42.08 67.37 43.61Q64.98 45.14 64.98 47.93L64.98 47.93Q64.98 50 66.33 51.44Q67.69 52.88 70.84 53.60L70.84 53.60L77.05 55.13Q83.16 56.66 86.22 59.67Q89.28 62.69 89.28 67.82Z" fill="#fff"></path></svg>